<?xml version="1.0" encoding="utf-8" ?>
<svg xmlns="http://www.w3.org/2000/svg" xmlns:xlink="http://www.w3.org/1999/xlink" width="1024" height="1024">
	<path fill="#103D2D" d="M-0 -0L1024 0L1024 1024L-0 1024L0 -0Z"/>
	<defs>
		<linearGradient id="gradient_0" gradientUnits="userSpaceOnUse" x1="511.72757" y1="736.49658" x2="439.9845" y2="699.99762">
			<stop offset="0" stop-color="#06ADAF"/>
			<stop offset="1" stop-color="#36D0CC"/>
		</linearGradient>
	</defs>
	<path fill="url(#gradient_0)" d="M495.867 621.42L501.726 653.18L501.342 653.696C500.608 654.626 500.899 654.262 500.003 655.106C497.473 657.49 495.723 661.014 493.998 664C486.811 676.442 481.374 689.471 477.722 703.375C476.74 707.115 475.402 711.728 475.298 715.576L471.163 738.254C467.932 760.161 466.334 783.48 468.801 805.529C469.682 813.413 471.376 821.13 472.758 828.93C457.361 797.714 449.761 762.629 452.317 727.83C453.029 718.138 454.861 708.76 456.861 699.269C454.604 701.966 453.062 708.261 451.889 711.621C446.721 726.42 442.554 741.33 440.966 756.984C440.229 764.252 440.535 771.709 439.605 778.904C435.609 766.183 433.401 753.426 434.086 740.055C435.955 703.571 451.725 666.855 476.121 639.788C482.174 633.072 489.191 627.476 495.867 621.42Z"/>
	<path fill="#048BA8" d="M501.726 653.18L501.75 653.614L502.844 656.641L503.75 657.005C506.132 655.815 508.418 654.846 510.978 654.114C508.329 660.982 506.832 668.528 505.457 675.75C501.117 698.549 500.14 721.983 501.451 745.127C501.953 753.996 502.482 762.995 504.058 771.75C507.667 791.804 514.189 812.7 522.434 831.34L525.057 836.896L527.003 829.945C527.941 830.637 527.651 830.171 527.841 830.877C528.231 832.327 529.046 833.644 529.312 835.135C529.648 837.01 529.331 838.92 529.809 840.781C532.385 868.402 538.636 899.647 554.743 922.75L554.25 923.196C518.132 885.407 490.849 839.67 479.939 788.234C476.949 774.135 475.511 758.922 474.698 744.53C474.413 739.476 474.442 734.336 474.704 729.281C474.862 726.223 476.549 718.044 475.298 715.576C475.402 711.728 476.74 707.115 477.722 703.375C481.374 689.471 486.811 676.442 493.998 664C495.723 661.014 497.473 657.49 500.003 655.106C500.899 654.262 500.608 654.626 501.342 653.696L501.726 653.18Z"/>
	<path fill="#F29E4C" d="M334.592 553.332C338.067 556.707 342.088 560.749 346.397 562.987C349.565 564.632 353.042 565.437 356.479 566.284C359.588 567.05 362.704 567.147 365.891 567.266C367.028 567.172 367.45 567.07 368.519 567.545L368.041 568.748L368.956 569.665C374.506 575.333 386.741 579.717 394.5 579.923L397.404 579.807L311.926 754.382L311.872 754.399C302.938 776.092 301.919 798.592 310.968 820.526C318.255 838.188 331.499 851.81 349.243 859.032C352.903 860.522 356.695 861.797 360.53 862.755C362.766 863.313 368.451 863.693 370.083 864.815L322.48 865L133.322 864.954C140.294 862.473 147.46 860.129 153.995 856.619C180.877 842.183 203.904 814.682 219.172 788.651C224.552 779.478 228.724 769.5 233.339 759.924L255.34 714.595L306.918 607L323.023 573.669C326.442 566.8 329.762 559.319 334.592 553.332Z"/>
	<path fill="#B0712B" d="M365.891 567.266C367.028 567.172 367.45 567.07 368.519 567.545L368.041 568.748L368.956 569.665C374.506 575.333 386.741 579.717 394.5 579.923L397.404 579.807L311.926 754.382L311.872 754.399C307.108 755.157 302.259 757.21 297.624 758.616L276.023 764.926C274.195 765.485 268.137 768.209 266.634 767.493C271.299 755.055 277.807 743.348 283.671 731.45L310.259 677.279L346.516 603.46L356.767 582.815C359.42 577.511 362.02 571.799 365.891 567.266Z"/>
	<path fill="#F29E4C" d="M485.578 203.769C488.555 197.628 510.483 151.326 511.686 150.568L614.237 348.524C597.799 355.761 582.446 359.075 564.48 359.069L552.88 358.394C548.678 357.38 544.417 355.584 540.216 354.877C548.777 363.887 558.232 367.601 569.541 372.11C577.212 374.302 584.771 375.127 592.719 375.423C595.66 375.532 599.275 374.908 602.089 375.649C594.728 380.148 587.941 385.042 579.909 388.39C574.754 390.637 569.499 392.389 563.967 393.471C560.353 394.177 556.522 394.377 552.978 395.287L543.756 394.867C554.655 401.638 564.522 406.611 577.5 408.08L578.463 408.197C581.541 408.552 584.844 408.596 587.928 408.25C588.125 409.176 588.168 408.764 587.936 409.494C581.65 415.016 576.041 422.701 570.553 429.068L553.434 448.735C551.373 451.004 547.041 457.137 544.3 457.727C538.496 457.233 532.713 455.834 527.022 454.625C515.695 452.217 504.589 448.9 493.613 445.233C480.131 440.729 466.764 435.577 454.431 428.46C443.551 420.916 435.914 411.437 428.832 400.365C421.901 389.764 416.909 377.621 409.334 367.528L485.578 203.769Z"/>
	<path fill="#B0712B" d="M428.832 400.365L476.507 295.109L496.311 336.388L454.431 428.46C443.551 420.916 435.914 411.437 428.832 400.365Z"/>
	<path fill="#103D2D" d="M454.431 428.46L496.311 336.388L553.434 448.735C551.373 451.004 547.041 457.137 544.3 457.727C538.496 457.233 532.713 455.834 527.022 454.625C515.695 452.217 504.589 448.9 493.613 445.233C480.131 440.729 466.764 435.577 454.431 428.46Z"/>
	<path fill="#2C699A" d="M142.422 249.283C150.176 251.585 157.837 255.149 165.352 258.168L219.678 280.399L301.674 312.797C325.908 322.294 350.458 331.33 373.75 343L389.866 351.513C393.458 353.478 397.318 355.429 400.491 358.04C403.804 360.766 406.578 364.263 409.334 367.528C416.909 377.621 421.901 389.764 428.832 400.365C435.914 411.437 443.551 420.916 454.431 428.46C466.764 435.577 480.131 440.729 493.613 445.233C504.589 448.9 515.695 452.217 527.022 454.625C532.713 455.834 538.496 457.233 544.3 457.727C547.041 457.137 551.373 451.004 553.434 448.735L570.553 429.068C576.041 422.701 581.65 415.016 587.936 409.494C589.108 417.422 595.308 425.61 601.634 430.267C604.527 432.397 607.606 434.316 610.666 436.196C611.571 436.753 613.551 437.652 614.182 438.412L614.119 440.45C613.285 441.901 613.081 442.137 613.146 443.877C615.08 444.815 617.72 443.72 619.773 443.149C619.977 443.092 621.552 442.611 621.612 442.631C621.751 442.677 623.078 446.003 623.269 446.561C625.66 453.564 626.273 460.05 627.347 467.272C634.009 463.907 638.558 460.321 643.854 455.132C646.038 462.465 648.978 468.89 652.677 475.583L668.379 442.236C669.057 451.845 670.824 460.047 673.317 469.364C674.07 472.176 674.592 475.34 675.754 478.006L676.414 477.637C676.388 485.466 675.019 493.56 673.571 501.24C668.523 528.006 657.92 554.119 643.21 576.986C638.511 582.504 634.126 588.217 628.866 593.233C627.404 594.628 625.713 596.578 624.061 597.659C614.037 607.066 602.384 614.328 589.997 620.273C585.713 622.329 579.297 624.091 575.708 626.967L575.354 627.225C569.369 628.709 563.137 631.835 557.486 634.351C555.178 635.012 552.978 635.761 550.844 636.873L534.74 643.974L522.25 649.394C522.007 650.151 521.913 650.649 521.843 651.422L521.439 650.124C517.977 650.202 514.431 653.583 510.978 654.114C508.418 654.846 506.132 655.815 503.75 657.005L502.844 656.641L501.75 653.614L501.726 653.18L495.867 621.42C495.353 613.935 494.736 606.67 494.89 599.155C495.072 590.297 496.204 581.475 497.401 572.706C483.783 580.95 469.913 585.949 453.834 586.051C450.451 586.073 446.813 586.23 443.486 585.558C442.734 585.406 442.314 585.198 441.746 584.693C442.45 583.997 443.064 583.635 443.953 583.206C447.412 582.166 450.913 580.03 454.09 578.322C472.813 568.253 490.624 553.277 504.205 536.963C504.969 533.016 506.467 529.123 507.719 525.304C510.661 516.332 514.016 507.561 518.255 499.114L523.346 489.661C524.32 487.914 525.802 485.884 526.25 483.931L525.021 483.299C525.696 483.182 526.138 483.06 526.788 482.799C527.269 481.406 527.845 480.241 528.586 478.97L497.011 471.714C483.593 468.013 470.382 463.053 457.548 457.68C439.083 449.949 420.451 441.574 406.25 426.995C395.674 416.137 388.719 404.018 382.711 390.209C379.252 382.259 376.2 374.042 371.679 366.609C364.67 355.084 353.329 346.441 341.903 339.629C331.844 333.632 321.037 329.062 310.289 324.479L266.634 306.332L224.157 287.463L170.254 263.381L151.839 254.72C148.543 253.112 145.072 251.902 142.422 249.283Z"/>
	<path fill="#54478C" d="M643.854 455.132C646.038 462.465 648.978 468.89 652.677 475.583L668.379 442.236C669.057 451.845 670.824 460.047 673.317 469.364C674.07 472.176 674.592 475.34 675.754 478.006L676.414 477.637C676.388 485.466 675.019 493.56 673.571 501.24C668.523 528.006 657.92 554.119 643.21 576.986C638.511 582.504 634.126 588.217 628.866 593.233C627.404 594.628 625.713 596.578 624.061 597.659C614.037 607.066 602.384 614.328 589.997 620.273C585.713 622.329 579.297 624.091 575.708 626.967L575.354 627.225C569.369 628.709 563.137 631.835 557.486 634.351C555.178 635.012 552.978 635.761 550.844 636.873L534.74 643.974L522.25 649.394C522.007 650.151 521.913 650.649 521.843 651.422L521.439 650.124C517.977 650.202 514.431 653.583 510.978 654.114C508.418 654.846 506.132 655.815 503.75 657.005L502.844 656.641L501.75 653.614C503.519 652.66 504.911 649.971 506.189 648.427C508.088 646.134 510.148 644.131 512.471 642.269L563.75 604.843C574.038 596.802 584.087 587.272 592.546 577.313C618.596 546.642 630.524 507.318 627.347 467.272C634.009 463.907 638.558 460.321 643.854 455.132Z"/>
	<defs>
		<linearGradient id="gradient_1" gradientUnits="userSpaceOnUse" x1="763.29602" y1="740.07397" x2="559.96167" y2="896.05719">
			<stop offset="0" stop-color="#067167"/>
			<stop offset="1" stop-color="#09917D"/>
		</linearGradient>
	</defs>
	<path fill="url(#gradient_1)" d="M510.978 654.114C514.431 653.583 517.977 650.202 521.439 650.124L521.843 651.422C523.216 694.311 548.467 732.799 578.75 761.455C593.107 775.041 609.514 786.253 626.73 795.879C658.229 813.492 692.148 824.94 728.145 828.47C742.242 829.853 756.337 829.811 770.481 829.413C774.792 828.804 779.15 828.593 783.456 827.852C791.866 826.404 800.12 824.257 808.285 821.796C811.652 820.782 815.336 820.018 818.324 818.106C833.683 831.854 848.536 844.409 867.359 853.262C873.696 856.242 880.238 858.659 886.801 861.082C888.796 861.819 893.226 862.673 894.751 863.918L816.954 862.038C823.5 864.979 831.527 865.59 838.548 866.764L870.28 872.518C860.597 874.264 851.073 877.168 841.476 879.344C823.744 883.363 805.771 885.39 787.591 885.448C767.304 885.513 747.151 882.715 727.376 878.342C715.308 875.673 703.222 872.786 691.531 868.742C661.138 858.229 631.314 841.49 606.589 820.95C601.722 816.907 597.258 811.911 592.75 807.446L592.4 808C607.135 823.927 623.016 837.681 640.639 850.352C687.693 884.184 739.884 917.505 798.703 924.088C813.53 925.747 827.207 925.913 841.939 923.603L792.412 943.477C749.805 956.882 701.285 958.147 661 936.969C616.765 913.714 579.012 863.336 560.519 817.579C558.148 811.713 556.69 805.53 554.824 799.502L554.275 799.75C555.403 802.828 555.78 806.335 556.687 809.518C559.379 818.971 562.264 828.273 565.779 837.456C571.011 851.126 577.843 864.136 585.24 876.746C601.398 904.291 621.373 929.559 646.776 949.173C652.963 953.95 659.47 957.133 665.944 961.312C643.402 955.214 622.546 947.455 602.734 934.851C568.211 912.889 539.232 878.592 530.279 838L529.809 840.781C529.331 838.92 529.648 837.01 529.312 835.135C529.046 833.644 528.231 832.327 527.841 830.877C527.651 830.171 527.941 830.637 527.003 829.945L525.057 836.896L522.434 831.34C514.189 812.7 507.667 791.804 504.058 771.75C502.482 762.995 501.953 753.996 501.451 745.127C500.14 721.983 501.117 698.549 505.457 675.75C506.832 668.528 508.329 660.982 510.978 654.114Z"/>
	<path fill="#F29E4C" d="M510.978 654.114C514.431 653.583 517.977 650.202 521.439 650.124L521.843 651.422C523.216 694.311 548.467 732.799 578.75 761.455C593.107 775.041 609.514 786.253 626.73 795.879C658.229 813.492 692.148 824.94 728.145 828.47C742.242 829.853 756.337 829.811 770.481 829.413C774.792 828.804 779.15 828.593 783.456 827.852C791.866 826.404 800.12 824.257 808.285 821.796C811.652 820.782 815.336 820.018 818.324 818.106C833.683 831.854 848.536 844.409 867.359 853.262C873.696 856.242 880.238 858.659 886.801 861.082C888.796 861.819 893.226 862.673 894.751 863.918L816.954 862.038L814.946 861.525C812.601 861.733 809.724 861.213 807.351 861.043L788.709 859.437C745.907 855.225 703.73 845.538 663.399 830.523C646.206 824.122 629.352 817.086 613.449 807.862C605.155 803.052 597.596 797.573 589.937 791.822C575.189 780.748 561.591 768.674 549.79 754.423C533.509 734.764 520.914 710.301 514.361 685.642C513.13 691.652 513.384 697.881 513.4 703.989C513.457 725.433 515.803 746.248 521.379 766.997C524.204 777.511 527.846 788.176 531.969 798.249C532.405 799.315 536.874 808.673 536.802 809.01C536.71 809.438 535.471 810.944 535.166 811.402L531.875 816.899C529.697 820.973 528.047 825.449 527.003 829.945L525.057 836.896L522.434 831.34C514.189 812.7 507.667 791.804 504.058 771.75C502.482 762.995 501.953 753.996 501.451 745.127C500.14 721.983 501.117 698.549 505.457 675.75C506.832 668.528 508.329 660.982 510.978 654.114Z"/>
	<path fill="#048BA8" d="M652.287 575.649C657.18 575.294 662.43 573.709 667.13 572.354C680.311 568.553 692.117 563.684 702.95 555.126L768.397 684.246C787.563 678.761 805.596 672.733 823.129 663.095L806.602 678.945C794.155 689.906 780.704 698.937 766.529 707.509C805.694 700.352 845.807 685.976 880.047 665.509C883.496 663.447 886.708 660.987 890.072 658.787C883.451 667.502 877.454 676.549 870.154 684.756C833.509 725.958 783.007 756.02 727.938 763.547C689.393 768.815 649.433 766.044 613.36 750.679C602.897 746.223 592.574 741.288 583.5 734.311L573.25 725.255L573.071 725.947C581.083 734.067 589.486 741.603 598.969 747.98C627.646 767.264 664.864 777.731 699.296 777.957C758.176 778.343 814.56 756.891 863.163 724.666C879.746 713.671 896.528 701.529 910.714 687.521C919.324 679.019 926.535 669.882 933.797 660.249C926.237 683.356 914.061 705.259 900.678 725.431C880.973 755.133 857.924 782.078 831.445 805.921C829.507 807.666 818.414 816.566 818.324 818.106C815.336 820.018 811.652 820.782 808.285 821.796C800.12 824.257 791.866 826.404 783.456 827.852C779.15 828.593 774.792 828.804 770.481 829.413C756.337 829.811 742.242 829.853 728.145 828.47C692.148 824.94 658.229 813.492 626.73 795.879C609.514 786.253 593.107 775.041 578.75 761.455C548.467 732.799 523.216 694.311 521.843 651.422C521.913 650.649 522.007 650.151 522.25 649.394L534.74 643.974L550.844 636.873C552.978 635.761 555.178 635.012 557.486 634.351C563.137 631.835 569.369 628.709 575.354 627.225L575.708 626.967C579.297 624.091 585.713 622.329 589.997 620.273C602.384 614.328 614.037 607.066 624.061 597.659C625.713 596.578 627.404 594.628 628.866 593.233C634.126 588.217 638.511 582.504 643.21 576.986L652.039 575.931L652.287 575.649Z"/>
	<path fill="#F29E4C" d="M534.74 643.974L550.844 636.873C559.195 649.871 567.906 662.179 578.951 673.053C596.612 690.441 618.673 701.666 641.187 711.438C636.288 711.349 631.266 711.364 626.408 710.703C598.321 706.881 575.666 693.159 556.258 673.015C550.421 666.957 545.157 660.225 540.489 653.236C538.527 650.3 536.253 647.17 534.74 643.974Z"/>
	<path fill="#F29E4C" d="M575.354 627.225L575.708 626.967C579.297 624.091 585.713 622.329 589.997 620.273C602.384 614.328 614.037 607.066 624.061 597.659L638.609 626.622L641.295 631.736L640.918 632.265C642.286 633.305 643.918 633.766 645.385 634.639C647.276 635.765 651.512 639.799 653.313 640.139C655.889 642.888 658.1 645.564 659.888 648.919C660.836 651.471 661.655 653.788 662.041 656.5L662.457 659.33C665.237 662.364 666.894 666.931 668.93 670.549C674.015 679.589 679.818 688.76 684.092 698.181C665.387 698.754 647.606 696.302 629.982 689.973C622.986 687.461 615.966 684.549 609.862 680.252L605.525 675.78C601.171 673.555 597.423 669.721 594.067 666.217L581.823 652.634C579.247 649.633 575.96 646.601 574.156 643.068L557.486 634.351C563.137 631.835 569.369 628.709 575.354 627.225Z"/>
	<path fill="#103D2D" d="M574.156 643.068L587.384 648.9C590.445 650.273 593.731 651.566 596.249 653.843C599.1 656.419 600.733 659.512 602.127 663.027C603.737 667.087 604.642 671.513 605.525 675.78C601.171 673.555 597.423 669.721 594.067 666.217L581.823 652.634C579.247 649.633 575.96 646.601 574.156 643.068Z"/>
	<path fill="#103D2D" d="M575.354 627.225L575.708 626.967C579.297 624.091 585.713 622.329 589.997 620.273C602.384 614.328 614.037 607.066 624.061 597.659L638.609 626.622L641.295 631.736L640.918 632.265C628.968 627.749 616.257 632.6 604.037 631.83C594.465 631.226 584.824 628.765 575.354 627.225Z"/>
	<path fill="#103D2D" d="M609.862 680.252C610.74 674.308 611.508 667.84 610.806 661.844C609.759 652.91 604.506 646.898 597.693 641.594C604.906 643.484 611.445 646.521 618.377 649.176C621.848 650.505 625.729 651.498 628.917 653.408C637.986 658.839 639.565 667.936 641.823 677.412C643.872 670.589 645.432 663.889 643.786 656.78C642.125 649.603 635.995 644.916 630.185 641.145C633.484 641.706 636.906 642.234 640.026 643.488C643.298 644.803 647.031 646.968 649.358 649.635C654.497 655.528 656.461 665.508 659.551 672.716C661.398 668.335 662.15 664.052 662.457 659.33C665.237 662.364 666.894 666.931 668.93 670.549C674.015 679.589 679.818 688.76 684.092 698.181C665.387 698.754 647.606 696.302 629.982 689.973C622.986 687.461 615.966 684.549 609.862 680.252Z"/>
	<path fill="#B0712B" d="M652.287 575.649C657.18 575.294 662.43 573.709 667.13 572.354C680.311 568.553 692.117 563.684 702.95 555.126L768.397 684.246L761.948 685.969C744.544 690.998 726.38 694.29 708.38 696.277C700.299 697.17 692.227 698.067 684.092 698.181C679.818 688.76 674.015 679.589 668.93 670.549C666.894 666.931 665.237 662.364 662.457 659.33L662.041 656.5C661.655 653.788 660.836 651.471 659.888 648.919C658.1 645.564 655.889 642.888 653.313 640.139C651.512 639.799 647.276 635.765 645.385 634.639C643.918 633.766 642.286 633.305 640.918 632.265L641.295 631.736L638.609 626.622L624.061 597.659C625.713 596.578 627.404 594.628 628.866 593.233C634.126 588.217 638.511 582.504 643.21 576.986L652.039 575.931L652.287 575.649Z"/>
	<defs>
		<linearGradient id="gradient_2" gradientUnits="userSpaceOnUse" x1="706.18213" y1="636.81512" x2="709.78943" y2="696.48499">
			<stop offset="0" stop-color="#5B4F31"/>
			<stop offset="1" stop-color="#A27939"/>
		</linearGradient>
	</defs>
	<path fill="url(#gradient_2)" d="M653.313 640.139C655.952 640.642 660.327 644.417 662.36 646.253L663.03 646.655L711.308 683.765C710.462 682.284 709.641 680.912 708.577 679.577C705.914 676.239 704.139 671.017 702.665 667.017L702.996 666.167C716.294 672.294 730.676 675.999 744.66 680.243C749.843 681.816 757.49 683.047 761.948 685.969C744.544 690.998 726.38 694.29 708.38 696.277C700.299 697.17 692.227 698.067 684.092 698.181C679.818 688.76 674.015 679.589 668.93 670.549C666.894 666.931 665.237 662.364 662.457 659.33L662.041 656.5C661.655 653.788 660.836 651.471 659.888 648.919C658.1 645.564 655.889 642.888 653.313 640.139Z"/>
	<path fill="#F29E4C" d="M643.21 576.986L652.039 575.931C652.647 576.362 653.077 576.763 653.458 577.412L667.588 603.832L692.313 649.147L697.076 658.031C697.55 658.941 698.547 660.351 698.744 661.333L698.809 662.281L662.56 639.25C654.83 634.722 646.9 630.036 638.609 626.622L624.061 597.659C625.713 596.578 627.404 594.628 628.866 593.233C634.126 588.217 638.511 582.504 643.21 576.986Z"/>
	<defs>
		<linearGradient id="gradient_3" gradientUnits="userSpaceOnUse" x1="148.63986" y1="452.69751" x2="388.99991" y2="283.48083">
			<stop offset="0" stop-color="#3AB7C9"/>
			<stop offset="1" stop-color="#5B92E0"/>
		</linearGradient>
	</defs>
	<path fill="url(#gradient_3)" d="M345.616 500.835C341.701 501.94 337.823 503.919 334.037 505.428C329.108 507.393 323.962 508.995 318.849 510.41C294.539 517.137 266.952 518.388 242 515.463C232.436 514.342 223.016 512.189 213.543 510.51C223.346 505.262 234.439 501.922 244.874 498.099L301.693 477.815C300.713 477.527 298.99 478.042 297.947 478.204L287.02 479.7L273.125 481.037C252.665 482.776 231.49 481.654 211.237 478.39C194.519 475.695 177.519 471.496 162.255 463.997L250.828 441.342L272.31 437.319C275.531 436.808 282.59 436.56 285.101 434.75L255.849 434.285C219.677 432.321 184.135 426.377 149.959 414.163C132.57 407.949 116.379 400.761 101.77 389.253L151.548 389.545L208.963 389.646L235.247 390.385C239.691 390.616 244.645 391.631 249 391.216C244.234 389.876 238.74 389.513 233.798 388.617L207.578 382.522C165.717 370.708 125.381 350.011 91.6961 322.424C81.1512 313.788 71.4771 304.269 62.008 294.489C64.2958 294.585 67.5663 296.316 69.8183 297.037L101.437 307.143L177.7 329.026L213.99 338.011C216.562 338.672 231.558 343.167 232.991 342.66C221.942 338.198 210.894 334.067 200.229 328.688C160.746 308.775 123.269 281.303 93.2868 248.713C82.6776 237.181 73.0153 225.348 65.0621 211.77L142.422 249.283C145.072 251.902 148.543 253.112 151.839 254.72L170.254 263.381L224.157 287.463L266.634 306.332L310.289 324.479C321.037 329.062 331.844 333.632 341.903 339.629C353.329 346.441 364.67 355.084 371.679 366.609C376.2 374.042 379.252 382.259 382.711 390.209C388.719 404.018 395.674 416.137 406.25 426.995C420.451 441.574 439.083 449.949 457.548 457.68C470.382 463.053 483.593 468.013 497.011 471.714L528.586 478.97C527.845 480.241 527.269 481.406 526.788 482.799C526.138 483.06 525.696 483.182 525.021 483.299L526.25 483.931C525.802 485.884 524.32 487.914 523.346 489.661L518.255 499.114C514.016 507.561 510.661 516.332 507.719 525.304C506.467 529.123 504.969 533.016 504.205 536.963C490.624 553.277 472.813 568.253 454.09 578.322C450.913 580.03 447.412 582.166 443.953 583.206C443.064 583.635 442.45 583.997 441.746 584.693L437.44 586.822C435.654 587.454 433.017 587.152 431.143 587.09C421.526 586.768 410.633 584.069 402.166 579.466L415.456 572.286L414.883 570.949C409.922 573.982 404.956 576.937 399.5 578.985L397.404 579.807L394.5 579.923C386.741 579.717 374.506 575.333 368.956 569.665L368.041 568.748L368.519 567.545C367.45 567.07 367.028 567.172 365.891 567.266C362.704 567.147 359.588 567.05 356.479 566.284C353.042 565.437 349.565 564.632 346.397 562.987C342.088 560.749 338.067 556.707 334.592 553.332L335.089 552.819L343.055 543.976C338.605 544.132 333.337 546.887 328.75 547.745C312.094 550.859 294.888 549.792 278.802 544.567L345.619 501.523L345.616 500.835Z"/>
	<path fill="#2C699A" d="M332.009 368.266C331.049 368.211 330.204 368.109 329.272 367.855L300.557 358.792C259.791 346.186 211.725 329.796 189.509 290.254L282.42 319.642L282.04 320.754C290.472 337.331 305.163 349.194 320.007 359.805C323.78 362.503 328.774 365.002 332.009 368.266Z"/>
	<path fill="#2C699A" d="M394.606 475.158L394.744 474.384C394.121 474.53 394.163 474.48 393.5 474.877L393 475.25C391.949 474.919 392.116 474.994 391.189 475.401C387.917 476.837 384.815 478.677 381.491 479.98C369.353 484.74 354.298 488.667 341.264 489.773C333.237 490.454 324.813 490.097 316.761 489.719L329.459 485.293L318.391 478.371L361.966 461.033C359.203 460.804 356.11 461.443 353.33 461.669L339.984 462.171C324.273 462.477 308.569 461.744 293 459.592C284.906 458.474 276.6 457.154 268.779 454.747C270.07 453.322 272.615 452.426 274.347 451.581C284.04 446.848 294.472 444.175 304.939 441.771L344.751 433.906L360.653 431.377C353.994 430.354 346.574 431.318 339.842 431.467C324.994 431.797 310.212 432.137 295.438 430.304C279.091 428.277 258.211 420.898 247.78 407.554C250.62 405.784 255.382 405.139 258.643 404.426C277.475 400.313 297.886 399.922 317.137 399.872C324.96 399.852 333.009 400.503 340.781 399.637L309.292 395.149C303.439 394.399 297.568 394.009 291.75 392.957C270.224 389.066 250.143 381.332 233.253 367.251C228.72 363.472 224.566 358.835 220.417 354.631C228.374 354.305 236.305 353.638 244.277 354.06C256.834 354.723 269.673 357.109 282 359.518C294.062 361.875 306.268 364.477 317.982 368.218C315.516 368.773 311.976 368.632 309.885 369.883C309.332 371.061 309.231 371.719 309.75 372.972C311.069 376.156 314.837 379.581 317.471 381.746C327.988 390.389 340.415 396.007 353.263 400.208C357.41 401.564 362.077 402.563 365.97 404.495C353.122 404.29 336.809 405.037 325.359 411.353L324.698 412.5C327.733 418.036 337.643 420.893 343.453 422.603L377.873 430.518C369.579 432.611 361.537 435.16 353.494 438.062C350.325 439.205 346.291 440.262 343.965 442.75C344.313 444.324 344.798 445.212 346.198 446.1C351.465 449.444 360.65 450.307 366.765 451.355C370.612 452.014 374.892 452.979 378.796 453.013L387.128 454.187C378.611 457.949 369.631 462.218 361.912 467.434L361.851 468.083C364.156 470.046 366.302 470.627 369.25 471.052L370.063 471.177C379.355 472.527 388.434 470.395 397.633 469.353L399.447 471.25C398.609 472.753 396.154 474.395 394.606 475.158Z"/>
	<path fill="#54478C" d="M332.009 368.266C328.774 365.002 323.78 362.503 320.007 359.805C305.163 349.194 290.472 337.331 282.04 320.754L282.42 319.642C293.36 323.636 304.541 327.507 315.114 332.403C324.427 336.716 333.082 341.835 341.632 347.489C347.626 351.453 353.502 355.432 358.584 360.559C371.852 373.947 377.374 393.287 387.029 409.149C393.777 420.234 401.689 429.136 411.79 437.271C423.524 446.724 437.298 453.888 450.991 460.06C474.722 470.756 499.426 478.613 525.021 483.299L526.25 483.931C525.802 485.884 524.32 487.914 523.346 489.661L518.255 499.114C514.016 507.561 510.661 516.332 507.719 525.304C506.467 529.123 504.969 533.016 504.205 536.963C490.624 553.277 472.813 568.253 454.09 578.322C450.913 580.03 447.412 582.166 443.953 583.206C443.064 583.635 442.45 583.997 441.746 584.693L437.44 586.822C435.654 587.454 433.017 587.152 431.143 587.09C421.526 586.768 410.633 584.069 402.166 579.466L415.456 572.286L414.883 570.949C409.922 573.982 404.956 576.937 399.5 578.985L397.404 579.807L394.5 579.923C386.741 579.717 374.506 575.333 368.956 569.665L368.041 568.748L368.519 567.545C367.45 567.07 367.028 567.172 365.891 567.266C362.704 567.147 359.588 567.05 356.479 566.284C353.042 565.437 349.565 564.632 346.397 562.987C342.088 560.749 338.067 556.707 334.592 553.332L335.089 552.819L343.055 543.976C338.605 544.132 333.337 546.887 328.75 547.745C312.094 550.859 294.888 549.792 278.802 544.567L345.619 501.523L345.616 500.835C362.329 493.567 379.808 485.938 394.606 475.158C396.154 474.395 398.609 472.753 399.447 471.25L397.633 469.353C388.434 470.395 379.355 472.527 370.063 471.177L369.25 471.052C366.302 470.627 364.156 470.046 361.851 468.083L361.912 467.434C369.631 462.218 378.611 457.949 387.128 454.187L378.796 453.013C374.892 452.979 370.612 452.014 366.765 451.355C360.65 450.307 351.465 449.444 346.198 446.1C344.798 445.212 344.313 444.324 343.965 442.75C346.291 440.262 350.325 439.205 353.494 438.062C361.537 435.16 369.579 432.611 377.873 430.518L343.453 422.603C337.643 420.893 327.733 418.036 324.698 412.5L325.359 411.353C336.809 405.037 353.122 404.29 365.97 404.495C362.077 402.563 357.41 401.564 353.263 400.208C340.415 396.007 327.988 390.389 317.471 381.746C314.837 379.581 311.069 376.156 309.75 372.972C309.231 371.719 309.332 371.061 309.885 369.883C311.976 368.632 315.516 368.773 317.982 368.218L353.98 379.27C351.467 377.481 348.198 376.238 345.412 374.907L332.009 368.266Z"/>
	<path fill="#2C699A" d="M436.075 499.979L436.496 500.948C430.683 509.834 424.429 517.409 416.676 524.68C416.003 525.311 414.159 527.412 413.378 527.649C412.924 527.556 412.077 527.206 411.668 527.229C410.161 527.312 406.405 530.002 404.717 530.785C402.047 532.021 399.432 532.959 396.538 533.546C390.592 534.754 383.244 534.071 377.139 534.049C380.423 532.022 385.962 529.312 388.25 526.321L386.93 525.686C389.632 525.746 392.51 523.127 394.904 521.869L418.577 509.293C424.009 506.285 430.18 501.783 436.075 499.979Z"/>
	<path fill="#2C699A" d="M352.54 502.607C374.696 502.446 392.969 493.75 412.979 485.326L417.908 489.999L390.8 509.223C390.09 508.692 389.44 508.944 388.619 509.168C382.156 510.935 376.759 513.238 370 514.194C360.677 515.512 350.097 513.943 340.798 512.757C346.708 510.112 352.501 508.172 358.032 504.664L352.54 502.607Z"/>
	<path fill="#048BA8" d="M415.456 572.286C423.147 568.294 430.531 563.559 437.814 558.878C453.428 548.844 469.679 537.224 480.173 521.607C479.104 542.318 465.321 564.097 450.25 577.757L443.953 583.206C443.064 583.635 442.45 583.997 441.746 584.693L437.44 586.822C435.654 587.454 433.017 587.152 431.143 587.09C421.526 586.768 410.633 584.069 402.166 579.466L415.456 572.286Z"/>
	<path fill="#048BA8" d="M454.703 509.466L457.25 507.553L458.755 507.75C459.991 510.763 457.426 517.961 456.183 520.946C449.381 537.281 437.91 550.936 424.869 562.706C421.69 565.576 417.894 567.987 414.883 570.949C409.922 573.982 404.956 576.937 399.5 578.985L397.404 579.807L394.5 579.923C386.741 579.717 374.506 575.333 368.956 569.665C373.884 568.28 378.699 565.429 383.04 562.763C395.886 556.851 408.309 547.345 419.596 538.889C431.876 529.689 444.014 520.559 454.703 509.466Z"/>
	<path fill="#048BA8" d="M345.619 501.523L347.25 500.97L347.961 501.376C349.329 502.118 351.013 502.372 352.54 502.607L358.032 504.664C352.501 508.172 346.708 510.112 340.798 512.757C350.097 513.943 360.677 515.512 370 514.194C376.759 513.238 382.156 510.935 388.619 509.168C389.44 508.944 390.09 508.692 390.8 509.223C389.385 510.596 388.095 511.952 386.897 513.519C390.177 513.474 393.515 513.56 396.764 513.093C396.022 513.543 392.172 516.189 391.651 516.123L382.75 523.366L382.75 523.948C384.1 524.952 385.312 525.275 386.93 525.686L388.25 526.321C385.962 529.312 380.423 532.022 377.139 534.049C383.244 534.071 390.592 534.754 396.538 533.546C399.432 532.959 402.047 532.021 404.717 530.785C406.405 530.002 410.161 527.312 411.668 527.229C412.077 527.206 412.924 527.556 413.378 527.649L410.082 531.248C413.806 531.479 419.297 531.301 422.74 532.726L385.836 556.742C382.473 558.26 379.295 560.237 376.1 562.079C373.312 563.686 370.6 564.792 368.652 567.436L368.519 567.545C367.45 567.07 367.028 567.172 365.891 567.266C362.704 567.147 359.588 567.05 356.479 566.284C353.042 565.437 349.565 564.632 346.397 562.987C342.088 560.749 338.067 556.707 334.592 553.332L335.089 552.819L343.055 543.976C338.605 544.132 333.337 546.887 328.75 547.745C312.094 550.859 294.888 549.792 278.802 544.567L345.619 501.523Z"/>
	<path fill="#F29E4C" d="M343.055 543.976L343.656 544.168C344.589 544.546 344.939 545.049 345.548 545.808L350.182 545.998C345.566 549.393 340.668 551.538 335.089 552.819L343.055 543.976Z"/>
	<path fill="#103D2D" d="M343.055 543.976L379.838 522.642C377.606 525.28 374.695 527.225 372.074 529.457C365.373 535.164 358.068 542.066 350.182 545.998L345.548 545.808C344.939 545.049 344.589 544.546 343.656 544.168L343.055 543.976Z"/>
	<path fill="#2C699A" d="M826.829 145.623L904.635 48.2097C902.235 74.619 897.267 100.191 889.232 125.473C883.859 142.38 877.347 158.86 868.232 174.125C862.444 183.819 855.523 192.583 848.323 201.25C850.106 200.962 873.736 177.644 877.048 174.499L961.711 93.4002C958.647 104.054 955.414 114.625 951.251 124.913C935.14 164.725 910.362 200.764 881.224 232.105C868.223 246.088 853.263 260.478 837.293 271.054C836.64 271.486 836.89 271.284 836.356 271.879C850.458 265.897 863.637 258.427 877 250.987L944.384 212.266C941.146 222.236 937.377 231.74 932.199 240.884C918.8 264.548 898.1 284.716 875.523 299.601C863.035 307.835 849.932 314.672 837.029 322.163L919.015 297.068C918.704 300.688 916.434 305.23 914.78 308.467C908.402 320.948 900.475 331.017 889.754 340.081C875.332 352.274 857.548 361.17 839.943 367.825L828.113 371.998C825.656 372.828 822.963 373.499 820.717 374.802C844.834 375.944 867.764 374.914 890.545 366.155C882.545 388.62 861.532 404.97 840.603 414.95C826.687 421.586 812.588 425.982 797.423 428.652C814.667 432.166 833.751 432.639 850.884 428.632C848.856 432.594 846.846 436.378 844.044 439.858C835.212 450.827 821.337 458.895 808.09 463.191C797.468 466.636 786.3 468.494 775.133 468.515C771.501 468.522 767.776 468.707 764.25 467.715C763.443 467.034 763.093 466.669 762.75 465.663L759.9 465.18L762.521 468.18C778.365 475.337 793.132 481.13 810.505 483.182C809.543 484.631 807.392 485.886 805.968 486.9C797.829 492.703 788.289 496.554 778.516 498.537L759.493 501.245L759.886 501.401L778.402 510.163C772.488 519.404 760.247 528.544 749.5 530.982C746.076 531.759 742.197 532.009 738.686 531.977C737.591 537.411 736.427 542.564 731.498 545.857C723.836 550.978 712.176 553.562 703.13 554.756L702.95 555.126C692.117 563.684 680.311 568.553 667.13 572.354C662.43 573.709 657.18 575.294 652.287 575.649L652.039 575.931L643.21 576.986C657.92 554.119 668.523 528.006 673.571 501.24C675.019 493.56 676.388 485.466 676.414 477.637L675.754 478.006C674.592 475.34 674.07 472.176 673.317 469.364C670.824 460.047 669.057 451.845 668.379 442.236L652.677 475.583C648.978 468.89 646.038 462.465 643.854 455.132C638.558 460.321 634.009 463.907 627.347 467.272C626.273 460.05 625.66 453.564 623.269 446.561C623.078 446.003 621.751 442.677 621.612 442.631C621.552 442.611 619.977 443.092 619.773 443.149C617.72 443.72 615.08 444.815 613.146 443.877C613.081 442.137 613.285 441.901 614.119 440.45L614.182 438.412C613.551 437.652 611.571 436.753 610.666 436.196C607.606 434.316 604.527 432.397 601.634 430.267C595.308 425.61 589.108 417.422 587.936 409.494C588.168 408.764 588.125 409.176 587.928 408.25C584.844 408.596 581.541 408.552 578.463 408.197L577.5 408.08C564.522 406.611 554.655 401.638 543.756 394.867L552.978 395.287C556.522 394.377 560.353 394.177 563.967 393.471C569.499 392.389 574.754 390.637 579.909 388.39C587.941 385.042 594.728 380.148 602.089 375.649C599.275 374.908 595.66 375.532 592.719 375.423C584.771 375.127 577.212 374.302 569.541 372.11C558.232 367.601 548.777 363.887 540.216 354.877C544.417 355.584 548.678 357.38 552.88 358.394L564.48 359.069C582.446 359.075 597.799 355.761 614.237 348.524C635.701 338.456 655.773 324.868 680.282 324.537L680.535 321.872C682.929 301.031 694.178 280.923 710.054 267.319C718.54 260.048 728.117 253.92 736.878 246.933L736.864 246.909C748.513 236.291 758.973 224.48 769.538 212.805L826.829 145.623Z"/>
	<path fill="#103D2D" d="M778.357 376.509C781.008 375.393 788.632 378.987 791.588 379.982L783.122 389.293C782.203 385.081 780.386 381.068 778.471 377.224L778.357 376.509Z"/>
	<path fill="#103D2D" d="M676.414 477.637L676.893 467.507C677.812 460.025 679.261 452.804 682.497 445.937C686.774 436.858 693.526 429.084 700.032 421.553C709.611 410.466 719.825 399.467 731.437 390.461C738.972 384.617 756.244 386.701 765.465 387.868C770.63 389.011 776.999 390.525 781.525 393.359C774.184 398.011 766.114 402.742 757.828 405.419C759.126 406.517 761.032 407.055 762.596 407.695C766.007 409.091 769.654 410.421 772.819 412.301C763.034 419.447 750.385 422.93 739.237 427.379C744.391 430.324 750.5 432.108 755.332 435.498C744.689 440.678 732.46 442.971 721.018 445.821L735.299 451.352L745.5 454.552C748.029 455.229 751.383 455.599 753.461 457.203L739.519 460.158L700.968 462.053C709.375 465.649 718.001 468.868 726.75 471.53L737.641 474.38C740.419 475.018 743.221 475.391 745.708 476.837C734.823 479.442 723.071 481.721 711.826 481.494C705.434 481.085 699.596 483.459 693.306 484.376C702.882 492.865 713.023 499.223 725.082 503.714C726.495 504.241 727.782 505.014 729.093 505.75L729.25 506.308L727.551 507.076L691.639 505.202L696.337 508.641C702.355 513.849 707.246 517.889 711.691 524.592L681.718 515.306C685.847 519.58 703.817 536.388 703.472 540.868L703.376 541.643L684.057 532.906C680.581 531.523 676.947 530.006 673.236 529.433L673.804 529.897C681.474 536.237 688.147 544.954 694.862 552.316C685.849 549.427 677.011 545.27 667.517 544.483C671.105 551.401 676.486 556.581 680.992 562.825L665.84 556.793C664.089 556.1 662.154 555.164 660.25 555.574C659.211 557.238 659.081 560.175 659.569 562.084C660.084 564.094 662.997 567.002 664.322 568.683C660.754 568.446 657.25 568.188 653.761 567.357L652.287 575.649L652.039 575.931L643.21 576.986C657.92 554.119 668.523 528.006 673.571 501.24C675.019 493.56 676.388 485.466 676.414 477.637Z"/>
	<path fill="#103D2D" d="M810.83 182.983C811.762 185.148 810.953 187.811 810.643 190.136C809.078 201.891 805.568 213.123 801.206 224.11L779.758 270.811C785.737 268.28 791.393 265.528 797.75 264.001L798.492 263.817C800.304 263.391 801.913 263.512 803.75 263.702L804.854 264.5C803.881 268.221 801.817 271.827 800.128 275.277C796.935 281.8 793.65 288.258 789.852 294.455L776.329 315.581C785.902 312.648 797.848 307.187 808 308.098L808.913 309C808.922 311.734 805.636 315.749 804.114 318C796.753 328.886 788.634 339.066 779.345 348.383L778.28 349.443L793.746 346.808C796.636 346.347 803.248 345.678 805.657 347.325L806.42 348C805.902 351.132 797.932 358.012 795.207 359.999L794.5 360.503L776.278 372.671C768.839 361.422 756.279 349.598 742.553 346.866C739.499 346.258 731.591 345.713 728.995 347.5L729.392 349.391L728.297 348.489L726.441 334.377C724.749 323.506 724.872 312.912 726.797 302.066C728.97 289.83 733.499 278.344 740.308 267.955C749.585 253.802 762.192 242.081 773.386 229.49L810.83 182.983Z"/>
	<path fill="#F29E4C" d="M729.392 349.391L728.995 347.5C731.591 345.713 739.499 346.258 742.553 346.866C756.279 349.598 768.839 361.422 776.278 372.671L778.357 376.509L778.471 377.224C780.386 381.068 782.203 385.081 783.122 389.293L782.889 390.93L782.394 392.919L781.525 393.359C776.999 390.525 770.63 389.011 765.465 387.868C756.244 386.701 738.972 384.617 731.437 390.461C719.825 399.467 709.611 410.466 700.032 421.553C693.526 429.084 686.774 436.858 682.497 445.937C679.261 452.804 677.812 460.025 676.893 467.507L676.414 477.637L675.754 478.006C674.592 475.34 674.07 472.176 673.317 469.364C670.824 460.047 669.057 451.845 668.379 442.236L652.677 475.583C648.978 468.89 646.038 462.465 643.854 455.132C638.558 460.321 634.009 463.907 627.347 467.272C626.273 460.05 625.66 453.564 623.269 446.561C623.078 446.003 621.751 442.677 621.612 442.631C621.552 442.611 619.977 443.092 619.773 443.149C617.72 443.72 615.08 444.815 613.146 443.877C613.081 442.137 613.285 441.901 614.119 440.45L614.182 438.412C615.583 435.188 616.757 431.889 618.492 428.819C624.423 418.321 632.87 410.909 643.774 405.973C631.438 405.869 619.991 407.329 608.087 410.584C610.821 406.94 613.489 403.321 616.771 400.143C629.598 387.724 644.737 381.469 662.75 383.004C672.683 383.85 682.42 385.823 692.418 385.975L700.49 384.777C707.185 383.31 716.904 379.817 721.919 375.077C723.178 373.888 724.162 372.183 725.101 370.735C726.722 366.857 727.684 362.711 728.729 358.65L729.274 356.276C729.963 353.749 730.067 351.952 729.392 349.391Z"/>
	<path fill="#048BA8" d="M614.119 440.45C624.039 433.613 633.809 425.611 644.25 419.64C647.72 417.656 651.591 416.223 655.272 414.685C653.186 416.582 650.68 418.594 648.934 420.796C644.815 425.991 642.556 433.189 642.22 439.747C641.996 444.115 642.379 448.915 643.401 453.177L643.854 455.132C638.558 460.321 634.009 463.907 627.347 467.272C626.273 460.05 625.66 453.564 623.269 446.561C623.078 446.003 621.751 442.677 621.612 442.631C621.552 442.611 619.977 443.092 619.773 443.149C617.72 443.72 615.08 444.815 613.146 443.877C613.081 442.137 613.285 441.901 614.119 440.45Z"/>
	<path fill="#F1C453" d="M729.392 349.391L728.995 347.5C731.591 345.713 739.499 346.258 742.553 346.866C756.279 349.598 768.839 361.422 776.278 372.671L778.357 376.509L778.471 377.224C780.386 381.068 782.203 385.081 783.122 389.293L782.889 390.93L782.038 390.885C779.763 390.294 776.384 387.066 774.334 385.677C769.995 382.739 765.489 380.675 760.373 379.535L759.5 379.346C751.851 377.644 742.583 378.186 734.828 379.102C732.649 377.964 728.669 376.378 727.579 374.188C726.529 373.255 725.855 371.917 725.101 370.735C726.722 366.857 727.684 362.711 728.729 358.65L729.274 356.276C729.963 353.749 730.067 351.952 729.392 349.391Z"/>
	<path fill="#7D7044" d="M727.579 374.188C740.477 370.031 751.414 369.13 763.732 375.491C768.101 377.748 772.113 380.852 775.927 383.937L782.038 390.885C779.763 390.294 776.384 387.066 774.334 385.677C769.995 382.739 765.489 380.675 760.373 379.535L759.5 379.346C751.851 377.644 742.583 378.186 734.828 379.102C732.649 377.964 728.669 376.378 727.579 374.188Z"/>
	<path fill="#FBE596" d="M731.432 356.898L731.747 356.027C732.491 353.838 732.461 351.466 732.138 349.207C741.727 347.991 751.955 352.613 759.459 358.339C762.729 360.834 766.205 364.67 768.778 367.884C771.093 370.264 775.206 373.514 776.544 376.477L776.245 378.106C775.52 378.297 774.884 378.427 774.134 378.524C772.661 376.008 770.864 373.61 768.797 371.557C761.846 364.376 749.553 362.189 739.901 361.101C737.347 360.813 733.442 361.307 731.457 359.75L731.432 356.898Z"/>
	<path fill="#048BA8" d="M680.282 324.537C686.221 325.025 691.749 325.805 697.441 327.646C705.075 330.397 712.169 334.347 718.471 339.475C721.912 342.274 724.99 345.533 728.297 348.489L729.392 349.391C730.067 351.952 729.963 353.749 729.274 356.276L728.729 358.65C727.684 362.711 726.722 366.857 725.101 370.735C724.162 372.183 723.178 373.888 721.919 375.077C716.904 379.817 707.185 383.31 700.49 384.777L692.418 385.975C682.42 385.823 672.683 383.85 662.75 383.004C644.737 381.469 629.598 387.724 616.771 400.143C613.489 403.321 610.821 406.94 608.087 410.584C619.991 407.329 631.438 405.869 643.774 405.973C632.87 410.909 624.423 418.321 618.492 428.819C616.757 431.889 615.583 435.188 614.182 438.412C613.551 437.652 611.571 436.753 610.666 436.196C607.606 434.316 604.527 432.397 601.634 430.267C595.308 425.61 589.108 417.422 587.936 409.494C588.168 408.764 588.125 409.176 587.928 408.25C584.844 408.596 581.541 408.552 578.463 408.197L577.5 408.08C564.522 406.611 554.655 401.638 543.756 394.867L552.978 395.287C556.522 394.377 560.353 394.177 563.967 393.471C569.499 392.389 574.754 390.637 579.909 388.39C587.941 385.042 594.728 380.148 602.089 375.649C599.275 374.908 595.66 375.532 592.719 375.423C584.771 375.127 577.212 374.302 569.541 372.11C558.232 367.601 548.777 363.887 540.216 354.877C544.417 355.584 548.678 357.38 552.88 358.394L564.48 359.069C582.446 359.075 597.799 355.761 614.237 348.524C635.701 338.456 655.773 324.868 680.282 324.537Z"/>
	<path fill="#51CDC3" d="M602.089 375.649C608.211 374.671 615 373.291 621.184 373.117C600.66 385.719 579.506 400.233 554.073 396.25C553.695 395.94 553.303 395.654 552.978 395.287C556.522 394.377 560.353 394.177 563.967 393.471C569.499 392.389 574.754 390.637 579.909 388.39C587.941 385.042 594.728 380.148 602.089 375.649Z"/>
	<path fill="#103D2D" d="M686.582 349.977C688.258 348.686 689.792 348.812 691.843 348.75C693.255 347.681 693.553 347.837 695.326 348.052C701.998 348.863 707.853 353.836 712.267 358.528C708.711 362.703 703.418 370.798 697.5 371.448C693.155 371.925 690.013 370.457 686.822 367.732L685.524 366.365C683.549 363.966 682.807 359.56 683.121 356.547C683.441 353.476 684.265 351.929 686.582 349.977Z"/>
	<path fill="#FEFEFC" d="M687.908 350.459L689.25 349.999C690.816 351.088 691.676 351.686 692.357 353.5L692.25 354.499L690.1 356.037C689.925 358.853 689.949 361.457 692.013 363.625C693.562 365.252 695.137 365.608 697.25 365.97L698.75 366.255L698.75 366.9C696.805 367.757 694.729 367.595 692.654 367.302C690.914 366.23 689.235 365.177 687.836 363.66C685.82 361.474 684.579 358.531 684.742 355.531C684.889 352.82 685.924 352.14 687.908 350.459Z"/>
	<path fill="#51CDC3" d="M680.282 324.537C686.221 325.025 691.749 325.805 697.441 327.646C705.075 330.397 712.169 334.347 718.471 339.475C721.912 342.274 724.99 345.533 728.297 348.489L729.392 349.391C730.067 351.952 729.963 353.749 729.274 356.276L718.586 351.829C709.654 347.651 701.134 341.891 691.25 340.399L690.497 340.279C670.353 337.337 652.774 350.993 634.89 357.854C616.145 365.045 592.341 368.39 572.426 365.171C567.169 364.321 561.782 363.296 556.899 361.118L556.16 360.792C554.699 360.134 553.821 359.702 552.88 358.394L564.48 359.069C582.446 359.075 597.799 355.761 614.237 348.524C635.701 338.456 655.773 324.868 680.282 324.537Z"/>
</svg>
